<svg version="1.1" id="Map" class="gen-by-synoptic-designer" xmlns="http://www.w3.org/2000/svg" xmlns:xlink="http://www.w3.org/1999/xlink" viewBox="81.82084326891504 -2641.169761518976 1789.8750000000066 2535.750000000002" xml:space="preserve">
  <image width="1789.8750000000066" height="2535.750000000002" xlink:href=""/>
  <polygon id="50224300EC030" title="EC030" points="938.4458432689219,-2255.169761518975,938.4458432689221,-2641.169761518976,81.82084326891504,-2641.169761518976,81.82084326891504,-2255.169761518975,938.4458432689219,-2255.169761518975"/>
  <polygon id="50224300EC029A" title="EC029A" points="122.57084326892164,-2210.044761518975,122.57084326892164,-2243.669761518975,81.82084326891504,-2243.669761518975,81.82084326891504,-1943.4197615189755,122.57084326892164,-1943.4197615189755,122.57084326892164,-1978.294761518975,157.94584326892027,-1978.294761518975,157.94584326892027,-2210.044761518975,122.57084326892164,-2210.044761518975"/>
  <polygon id="50224300EC029" title="EC029" points="162.94584326892027,-2243.669761518975,162.94584326892027,-1943.4197615189755,258.44584326892027,-1943.4197615189755,258.44584326892027,-2243.669761518975,162.94584326892027,-2243.669761518975"/>
  <polygon id="50224300EC021" title="EC021" points="554.9458432689203,-2243.669761518975,263.44584326892027,-2243.669761518975,263.44584326892027,-2039.419761518975,590.4458432689207,-2039.419761518975,590.4458432689207,-2207.9197615189746,554.9458432689203,-2207.9197615189746,554.9458432689203,-2243.669761518975"/>
  <polygon id="50224300EC028" title="EC028" points="81.82084326891504,-1938.4197615189755,81.82084326891504,-1877.9197615189755,157.94584326892027,-1877.9197615189755,157.94584326892027,-1938.4197615189755,81.82084326891504,-1938.4197615189755"/>
  <polygon id="50224300EC032" title="EC032" points="258.44584326892027,-1753.1544244294355,258.44584326892027,-1938.4192615189754,162.94584326892027,-1938.4192615189754,162.94584326892027,-1616.6697615189753,257.19584326892164,-1616.6697615189753,257.19584326892164,-1657.1544244294355,288.69584326892164,-1657.1544244294355,288.69584326892164,-1616.6697615189755,409.19584326892164,-1616.6697615189755,409.19584326892164,-1657.1544244294355,518.4458432689216,-1657.1544244294353,518.4458432689216,-1636.3890873398957,548.4458432689216,-1636.3890873398957,548.4458432689216,-1657.1544244294355,837.4458432689216,-1657.1544244294355,837.4458432689216,-1753.1544244294355,258.44584326892027,-1753.1544244294355"/>
  <polygon id="50224300EC024" title="EC024" points="81.82084326891504,-1872.9197615189755,81.82084326891504,-1616.6697615189753,157.94584326892027,-1616.6697615189753,157.94584326892027,-1872.9197615189755,81.82084326891504,-1872.9197615189755"/>
  <polygon id="50224300EC027" title="EC027" points="263.44584326892027,-1877.9044244294355,581.3208432689216,-1877.9044244294355,581.3208432689216,-1941.169761518975,554.5708432689216,-1941.169761518975,554.5708432689216,-1980.669761518975,590.4458432689205,-1980.669761518975,590.4458432689205,-2034.419761518975,263.44584326892004,-2034.419761518975,263.44584326892027,-1877.9044244294355"/>
  <polygon id="50224300EC023" title="EC023" points="613.4458432689205,-1872.9044244294355,263.44584326892027,-1872.9044244294355,263.44584326892027,-1758.1544244294355,678.44584326892,-1758.1544244294355,678.44584326892,-1872.9044244294355,618.4458432689203,-1872.9044244294355,618.4458432689205,-1806.1544244294355,613.4458432689205,-1806.1544244294355,613.4458432689205,-1872.9044244294355"/>
  <polygon id="50224300EC019P" title="EC019P" points="595.4614682689205,-1938.4044244294355,595.4614682689205,-1877.904424429435,678.4458432689203,-1877.904424429435,678.4458432689203,-1938.4044244294355,595.4614682689205,-1938.4044244294355"/>
  <polygon id="50224300EC019O" title="EC019O" points="678.4458432689203,-1943.4044244294355,678.4458432689203,-2010.1544244294355,595.4458432689207,-2010.1544244294355,595.4458432689207,-1943.4044244294355,678.4458432689203,-1943.4044244294355"/>
  <polygon id="50224300EC019K" title="EC019K" points="617.6958432689216,-2242.5294244294355,617.6958432689216,-2218.6544244294355,595.4458432689205,-2218.6544244294355,595.4458432689205,-2015.1544244294355,735.9458432689216,-2015.1544244294355,735.9458432689214,-2242.5294244294355,617.6958432689216,-2242.5294244294355"/>
  <polygon id="50224300EC019J" title="EC019J" points="740.9458432689219,-2242.5294244294355,740.9458432689219,-2084.7794244294355,933.4458432689221,-2084.7794244294355,933.4458432689221,-2242.5294244294355,740.9458432689219,-2242.5294244294355"/>
  <polygon id="50224300EC019" title="EC019" points="933.4458432689221,-2079.7794244294355,740.9458432689216,-2079.7794244294355,740.9458432689216,-2015.1544244294355,837.4458432689216,-2015.1544244294355,837.4458432689214,-1805.7794244294355,922.9458432689216,-1805.7794244294355,922.9458432689216,-1893.0294244294355,933.4458432689221,-1893.0294244294355,933.4458432689221,-2079.7794244294355"/>
  <polygon id="50224300EC019M" title="EC019M" points="743.44584326892,-1849.4044244294357,743.44584326892,-1758.1544244294353,832.4458432689214,-1758.1544244294353,832.4458432689214,-1849.4044244294357,743.44584326892,-1849.4044244294357"/>
  <polygon id="50224300EC019N" title="EC019N" points="683.4458432689203,-1842.4044244294355,683.4458432689203,-1758.154424429435,738.4458432689203,-1758.154424429435,738.4458432689203,-1842.4044244294355,683.4458432689203,-1842.4044244294355"/>
  <polygon id="50224300EC019L" title="EC019L" points="837.4458432689216,-1887.1544244294355,837.4458432689216,-1967.9044244294355,802.4458432689216,-1967.9044244294355,802.4458432689216,-1972.9044244294355,832.4458432689216,-1972.9044244294355,832.4458432689216,-2010.1544244294355,683.4458432689203,-2010.1544244294355,683.4458432689203,-1854.4044244294355,832.4458432689216,-1854.4044244294355,832.4458432689216,-1882.1544244294355,802.4458432689216,-1882.1544244294355,802.4458432689216,-1887.1544244294355,837.4458432689216,-1887.1544244294355"/>
  <polygon id="50224300EC019C" title="EC019C" points="1435.1958432689216,-2121.419761518974,1435.1958432689216,-2208.919761518975,1417.6958432689216,-2208.919761518975,1417.6958432689216,-2228.919761518975,1025.695843268924,-2228.919761518975,1025.695843268924,-2208.919761518975,985.6958432689216,-2208.919761518975,985.6958432689216,-2228.919761518975,938.4458432689221,-2228.919761518975,938.4458432689221,-2121.419761518975,1435.1958432689216,-2121.419761518974"/>
  <polygon id="50224300EC019D" title="EC019D" points="1096.5708432689235,-2102.294761518974,1096.5708432689235,-1956.895539429471,1144.821213839336,-1904.6072920663948,1415.5708432689216,-1904.6072920663948,1415.5708432689216,-2102.294761518974,1096.5708432689235,-2102.294761518974"/>
  <polygon id="50224300EC019B" title="EC019B" points="1026.4458432689219,-1954.419761518975,1077.4458432689228,-1954.419761518975,1077.4458432689228,-2116.419761518975,991.4458432689219,-2116.419761518975,991.4458432689221,-2090.669761518975,986.4458432689219,-2090.669761518975,986.4458432689219,-2116.419761518975,938.4458432689221,-2116.419761518975,938.4458432689221,-1939.169761518975,986.4458432689219,-1939.169761518975,986.4458432689219,-1979.169761518975,1026.4458432689219,-1979.169761518975,1026.4458432689219,-1954.419761518975"/>
  <polygon id="50224300EC019A" title="EC019A" points="1083.040670855129,-1736.169761518975,1136.4458432689216,-1793.9822920663905,1136.4458432689225,-1885.4822920663937,1077.4458432689219,-1949.4197615189746,1026.4458432689219,-1949.4197615189746,1026.4458432689216,-1939.169761518975,938.4458432689219,-1939.169761518975,938.4458432689221,-1888.0294244294355,922.9458432689216,-1888.0294244294355,922.9458432689216,-1805.7794244294355,938.4458432689219,-1805.7794244294355,938.4458432689219,-1744.669761518975,1026.4458432689219,-1744.669761518975,1026.4458432689219,-1736.169761518975,1083.040670855129,-1736.169761518975"/>
  <polygon id="50224300EC019E" title="EC019E" points="1141.4458432689216,-1885.4822920663944,1141.4458432689216,-1794.9822920663937,1435.1958432689216,-1794.9822920663937,1435.1958432689216,-1820.107292066394,1454.1958432689216,-1820.107292066394,1454.1958432689216,-1860.357292066394,1435.1958432689216,-1860.357292066394,1435.1958432689216,-1885.4822920663944,1141.4458432689216,-1885.4822920663944"/>
  <polygon id="50224300EC019F" title="EC019F" points="1096.5708432689225,-1722.569044703313,1096.5708432689225,-1583.5447615189746,1415.5708432689216,-1583.5447615189748,1415.5708432689216,-1775.857292066393,1145.7439904287971,-1775.8572920663933,1096.5708432689225,-1722.569044703313"/>
  <polygon id="50224300EC019G" title="EC019G" points="986.4458432689219,-1744.669761518975,938.4458432689219,-1744.669761518975,938.4458432689219,-1569.4197615189748,986.4458432689219,-1569.4197615189748,986.4458432689219,-1594.669761518975,991.5708432689212,-1594.669761518975,991.5708432689212,-1569.419761518975,1077.4458432689225,-1569.419761518975,1077.4458432689225,-1731.169761518975,1026.4458432689219,-1731.169761518975,1026.4458432689219,-1704.669761518975,986.4458432689219,-1704.669761518975,986.4458432689219,-1744.669761518975"/>
  <polygon id="50224300EC019H" title="EC019H" points="1419.6958432689216,-1437.919761518975,1419.6958432689216,-1564.419761518975,1024.8208432689219,-1564.419761518975,1024.820843268922,-1508.044761518975,986.5708432689212,-1508.044761518975,986.5708432689212,-1564.419761518975,938.4458432689219,-1564.419761518975,938.4458432689219,-1437.919761518975,1419.6958432689216,-1437.919761518975"/>
  <polygon id="50224300EC013E" title="EC013E" points="1555.4458432689216,-1526.044761518975,1456.8208432689216,-1526.044761518975,1456.8208432689216,-1508.044761518975,1424.6958432689216,-1508.044761518975,1424.6958432689216,-1396.919761518975,1555.4458432689216,-1396.919761518975,1555.4458432689216,-1526.044761518975"/>
  <polygon id="50224300EC013D" title="EC013D" points="1271.4458432689212,-1396.919761518975,1419.6958432689216,-1396.919761518975,1419.6958432689216,-1432.919761518975,1271.4458432689212,-1432.919761518975,1271.4458432689212,-1396.919761518975"/>
  <polygon id="50224300EC013B" title="EC013B" points="1266.4458432689212,-1432.9197615189748,938.4458432689219,-1432.9197615189748,938.4458432689219,-1170.169761518975,1266.4458432689212,-1170.169761518975,1266.4458432689212,-1432.9197615189748"/>
  <polygon id="50224300EC013C" title="EC013C" points="1266.4458432689212,-1391.919761518975,1266.4458432689212,-1132.669761518975,1419.1958432689216,-1132.669761518975,1419.1958432689216,-1168.669761518975,1555.4458432689216,-1168.669761518975,1555.4458432689216,-1391.919761518975,1266.4458432689212,-1391.919761518975"/>
  <polygon id="50224300EC013G" title="EC013G" points="1555.4458432689216,-1163.669761518975,1457.6958432689216,-1163.669761518975,1457.6958432689216,-1130.044761518975,1424.1958432689216,-1130.044761518975,1424.1958432689216,-1037.1697615189748,1555.4458432689216,-1037.1697615189748,1555.4458432689216,-1163.669761518975"/>
  <polygon id="50224300EC013" title="EC013" points="1387.9458432689216,-1132.669761518975,1266.4458432689212,-1132.669761518975,1266.4458432689212,-1165.169761518975,1030.4458432689214,-1165.169761518975,1030.4458432689214,-1037.1697615189748,1419.1958432689216,-1037.1697615189748,1419.1958432689216,-1127.669761518975,1387.9458432689216,-1127.669761518975,1387.9458432689216,-1132.669761518975"/>
  <polygon id="50224300EC013A" title="EC013A" points="986.4458432689219,-1165.1697615189748,938.4458432689219,-1165.1697615189748,938.4458432689219,-1037.1697615189746,1025.4458432689214,-1037.1697615189746,1025.4458432689214,-1125.1697615189753,986.4458432689219,-1125.169761518975,986.4458432689219,-1165.1697615189748"/>
  <polygon id="50224300EC013F" title="EC013F" points="1560.4458432689216,-1037.1697615189748,1733.6958432689216,-1037.1697615189748,1733.6958432689216,-1041.044761518975,1850.5708432689212,-1041.044761518975,1850.5708432689212,-1168.294761518975,1868.5708432689212,-1168.294761518975,1868.5708432689212,-1508.044761518975,1850.5708432689212,-1508.044761518975,1850.5708432689212,-1526.044761518975,1560.4458432689216,-1526.044761518975,1560.4458432689216,-1037.1697615189748"/>
  <polygon id="50224300EC018" title="EC018" points="765.6958432689216,-1652.1544244294357,765.6958432689216,-1593.185098608515,832.4458432689214,-1593.185098608515,832.4458432689214,-1652.1544244294357,765.6958432689216,-1652.1544244294357"/>
  <polygon id="50224300EC020" title="EC020" points="694.6958432689219,-1652.1544244294357,694.6958432689219,-1593.185098608515,760.6958432689216,-1593.185098608515,760.6958432689216,-1652.1544244294357,694.6958432689219,-1652.1544244294357"/>
  <polygon id="50224300EC022" title="EC022" points="593.4458432689216,-1652.1544244294355,593.4458432689216,-1509.9197615189753,689.6958432689219,-1509.9197615189753,689.6958432689219,-1652.1544244294355,593.4458432689216,-1652.1544244294355"/>
  <polygon id="50224300EC016" title="EC016" points="832.4458432689216,-1581.419761518976,730.4458432689216,-1581.419761518976,730.4458432689216,-1570.2611918114683,725.4458432689216,-1570.2611918114683,725.4458432689216,-1581.419761518976,694.6958432689221,-1581.419761518976,694.6958432689221,-1533.419761518976,725.4458432689216,-1533.419761518976,725.4458432689216,-1540.2611918114683,730.4458432689216,-1540.2611918114683,730.4458432689216,-1528.419761518976,694.6958432689221,-1528.419761518976,694.6958432689221,-1434.419761518976,832.4458432689216,-1434.419761518976,832.4458432689216,-1581.419761518976"/>
  <polygon id="50224300EC014" title="EC014" points="689.6958432689221,-1504.919761518975,593.4458432689216,-1504.919761518975,593.4458432689214,-1134.9197615189757,832.4458432689214,-1134.9197615189757,832.4458432689214,-1429.419761518976,689.6958432689221,-1429.419761518976,689.6958432689221,-1504.919761518975"/>
  <polygon id="50224300EC042" title="EC042" points="506.44584326892186,-1198.6850986085153,506.44584326892186,-1134.9197615189757,555.6958432689216,-1134.9197615189757,555.6958432689216,-1167.169761518975,588.4458432689216,-1167.169761518975,588.4458432689216,-1355.7947615189773,556.9458432689316,-1355.7947615189773,556.9458432689316,-1358.169761518975,478.94584326892164,-1358.169761518975,478.94584326892164,-1279.669761518975,522.9458432689216,-1279.669761518975,522.9458432689216,-1272.6850986085155,478.94584326892164,-1272.6850986085155,478.94584326892164,-1198.6850986085153,506.44584326892186,-1198.6850986085153"/>
  <polygon id="50224300EC040" title="EC040" points="460.44584326892164,-1198.6850986085153,460.44584326892164,-1272.6850986085155,400.44584326892186,-1272.6850986085155,400.44584326892186,-1279.669761518975,460.44584326892164,-1279.669761518975,460.44584326892164,-1358.169761518975,358.4458432689212,-1358.169761518975,358.4458432689214,-1134.919761518975,406.94584326892186,-1134.919761518975,406.94584326892186,-1198.6850986085153,460.44584326892164,-1198.6850986085153"/>
  <polygon id="50224300EC038" title="EC038" points="288.44584326893187,-1134.9197615189753,353.4458432689212,-1134.9197615189753,353.4458432689212,-1341.1697615189748,288.44584326893187,-1341.1697615189748,288.44584326893187,-1134.9197615189753"/>
  <polygon id="50224300EC031" title="EC031" points="283.44584326893164,-1611.6697615189755,81.82084326891527,-1611.6697615189753,81.82084326891527,-1298.6697615189753,283.44584326893187,-1298.6697615189755,283.44584326893164,-1611.6697615189755"/>
  <polygon id="50224300EC036" title="EC036" points="516.4074167551498,-846.6697615189764,587.9458432689214,-846.6697615189764,587.9458432689214,-1016.6697615189753,786.9458432689214,-1016.6697615189753,786.9458432689214,-1129.6697615189757,501.44584326892186,-1129.6697615189753,501.44584326892186,-1193.6850986085153,411.94584326892186,-1193.6850986085153,411.94584326892186,-1129.669761518976,283.44584326893187,-1129.669761518976,283.44584326893187,-1293.6697615189755,81.82084326891504,-1293.6697615189755,81.82084326891504,-1169.1697615189746,162.69584326892164,-1169.1697615189746,162.69584326892164,-1129.669761518976,81.82084326891504,-1129.6697615189757,81.82084326891504,-1032.6697615189757,516.4074167551498,-1032.669761518976,516.4074167551498,-846.6697615189764"/>
  <polygon id="50224300EC044" title="EC044" points="592.9458432689214,-1011.6697615189753,592.9458432689214,-641.1697615189748,587.9458432689214,-641.1697615189748,587.9458432689214,-696.6697615189751,562.4074167551498,-696.6697615189751,562.4074167551498,-680.154424429435,557.4074167551498,-680.154424429435,557.4074167551498,-696.6697615189748,516.4074167551498,-696.6697615189748,516.4074167551498,-602.0447615189748,832.4458432689214,-602.0447615189748,832.4458432689214,-710.6697615189744,850.6958432689216,-710.6697615189744,850.6958432689216,-876.6697615189744,832.4458432689214,-876.6697615189744,832.4458432689214,-1011.6697615189753,592.9458432689214,-1011.6697615189753"/>
  <polygon id="50224300EC044A" title="EC044A" points="930.9458432689216,-933.1697615189746,837.4458432689214,-933.1697615189746,837.4458432689214,-881.6697615189748,855.6958432689214,-881.6697615189748,855.6958432689214,-863.9197615189748,930.9458432689216,-863.9197615189748,930.9458432689216,-933.1697615189746"/>
  <polygon id="50224300EC012" title="EC012" points="855.6958432689216,-602.0447615189746,986.4458432689212,-602.0447615189746,986.4458432689212,-858.9197615189744,855.6958432689219,-858.9197615189744,855.6958432689219,-705.6697615189742,837.4458432689216,-705.6697615189742,837.4458432689216,-656.6697615189742,855.6958432689216,-656.6697615189742,855.6958432689216,-602.0447615189746"/>
  <polygon id="50224300EC006" title="EC006" points="1555.4458432689216,-931.1697615189751,991.4458432689212,-931.1697615189751,991.4458432689212,-735.1697615189751,1023.6958432689216,-735.1697615189751,1023.6958432689216,-699.1697615189751,991.4458432689212,-699.1697615189751,991.4458432689212,-602.0447615189748,1555.4458432689216,-602.0447615189748,1555.4458432689216,-931.1697615189751"/>
  <polygon id="50224300EC002" title="EC002" points="1560.4458432689216,-931.1697615189751,1560.4458432689216,-835.1697615189746,1733.6958432689216,-835.1697615189746,1733.6958432689216,-931.1697615189751,1560.4458432689216,-931.1697615189751"/>
  <polygon id="50224300EC002A" title="EC002A" points="1560.4458432689216,-830.1697615189748,1560.4458432689216,-602.0447615189744,1733.6958432689216,-602.0447615189744,1733.6958432689216,-830.1697615189748,1560.4458432689216,-830.1697615189748"/>
  <polygon id="50224300EC002B" title="EC002B" points="1738.6958432689216,-602.0447615189742,1871.6958432689216,-602.0447615189742,1871.6958432689216,-699.1697615189751,1851.6958432689216,-699.1697615189751,1851.6958432689216,-780.1697615189751,1738.6958432689216,-780.1697615189751,1738.6958432689216,-602.0447615189742"/>
  <polygon id="50224300EC033" title="EC033" points="935.9458432689219,-863.9197615189748,986.4458432689212,-863.9197615189748,986.4458432689212,-1032.1697615189746,933.4458432689219,-1032.1697615189744,933.4458432689219,-1800.7794244294355,837.4458432689216,-1800.7794244294355,837.4458432689216,-1129.6697615189755,791.9458432689214,-1129.6697615189755,791.9458432689214,-1016.6697615189753,837.4458432689221,-1016.6697615189753,837.4458432689221,-938.1697615189746,935.9458432689221,-938.1697615189746,935.9458432689219,-863.9197615189748"/>
  <polygon id="50224300EC035D" title="EC035D" points="1427.6958432689216,-202.66976151897506,1871.6958432689216,-202.66976151897506,1871.6958432689216,-321.16976151897506,1851.6958432689216,-321.16976151897506,1851.6958432689216,-357.16976151897506,1871.6958432689216,-357.16976151897506,1871.6958432689216,-589.1697615189746,1427.6958432689216,-589.1697615189746,1427.6958432689216,-357.16976151897506,1455.6958432689216,-357.16976151897506,1455.6958432689216,-321.16976151897506,1427.6958432689216,-321.16976151897506,1427.6958432689216,-202.66976151897506"/>
  <polygon id="50224300EC035C" title="EC035C" points="1419.6958432689216,-589.1697615189746,1011.9458432689153,-589.1697615189746,1011.9458432689153,-357.16976151897506,1023.6958432689216,-357.16976151897506,1023.6958432689216,-321.16976151897506,1011.9458432689153,-321.16976151897506,1011.9458432689153,-105.41976151897506,1419.6958432689216,-105.41976151897506,1419.6958432689216,-589.1697615189746"/>
  <polygon id="50224300EC035A" title="EC035A" points="81.82084326891504,-495.16976151897506,81.82084326891504,-381.66976151897506,287.44584326891527,-381.66976151897506,287.44584326891527,-495.16976151897506,81.82084326891504,-495.16976151897506"/>
  <polygon id="50224300EC037" title="EC037" points="516.4074167551498,-755.0447615189753,516.4074167551498,-737.1697615189757,587.9458432689214,-737.1697615189757,587.9458432689214,-841.4197615189762,516.4074167551498,-841.4197615189762,516.4074167551498,-831.2947615189742,498.1574167551503,-831.2947615189742,498.1574167551503,-882.2947615189748,469.82084326892164,-882.2947615189748,469.82084326892164,-893.1697615189746,429.57084326892164,-893.1697615189746,429.57084326892164,-882.2947615189748,365.82084326892164,-882.2947615189705,365.82084326892164,-893.1697615189707,325.57084326892164,-893.1697615189707,325.57084326892164,-882.2947615189748,288.9458432689214,-882.2947615189748,288.9458432689214,-704.0447615189751,325.57084326892164,-704.0447615189748,325.57084326892164,-693.1697615189753,365.82084326892164,-693.1697615189753,365.82084326892164,-704.0447615189751,429.57084326892164,-704.0447615189748,429.57084326892164,-693.1697615189753,469.82084326892164,-693.1697615189753,469.82084326892164,-704.0447615189751,498.1574167551503,-704.0447615189751,498.1574167551498,-755.0447615189753,516.4074167551498,-755.0447615189753"/>
  <polygon id="50224300EC994" title="EC994" points="293.69584326892164,-893.1697615189746,394.5324167551498,-893.1697615189746,394.5324167551498,-987.1697615189739,293.69584326892164,-987.1697615189739,293.69584326892164,-893.1697615189746"/>
  <polygon id="50224300EC993" title="EC993" points="400.5324167551498,-987.1697615189742,400.5324167551498,-893.1697615189748,499.69584326892164,-893.1697615189748,499.69584326892164,-987.1697615189742,400.5324167551498,-987.1697615189742"/>
  <polygon id="50224300EC992" title="EC992" points="400.5324167551498,-693.1697615189746,400.5324167551498,-599.1697615189746,499.69584326892164,-599.1697615189746,499.69584326892164,-693.1697615189746,400.5324167551498,-693.1697615189746"/>
  <polygon id="50224300EC991" title="EC991" points="394.5324167551498,-599.1697615189746,394.5324167551498,-693.1697615189748,293.69584326892164,-693.1697615189748,293.69584326892164,-599.1697615189746,394.5324167551498,-599.1697615189746"/>
  <polygon id="50224300EC989" title="EC989" points="1743.6958432689216,-1025.169761518975,1743.6958432689216,-790.1697615189751,1851.6958432689216,-790.1697615189751,1851.6958432689216,-1025.169761518975,1743.6958432689216,-1025.169761518975"/>
  <polygon id="50224300EC996" title="EC996" points="438.44584326893187,-1368.169761518975,546.9458432689316,-1368.169761518975,546.9458432689316,-1603.1697615189753,489.44584326893187,-1603.169761518975,489.44584326893187,-1652.1544244294355,438.3724599592533,-1652.1544244294355,438.3724599592533,-1613.169761518975,438.44584326893164,-1613.169761518975,438.44584326893187,-1368.169761518975"/>
  <polygon id="50224300EC999" title="EC999" points="293.44584326893164,-1551.169761518975,293.44584326893164,-1467.419761518975,428.44584326893164,-1467.419761518975,428.44584326893164,-1551.169761518975,293.44584326893164,-1551.169761518975"/>
  <polygon id="50224300EC998" title="EC998" points="428.44584326893164,-1461.919761518975,293.44584326893164,-1461.919761518975,293.44584326893164,-1368.169761518975,428.44584326893164,-1368.169761518975,428.44584326893164,-1461.919761518975"/>
  <polygon id="50224300EC034" title="EC034" points="986.445843268921,-936.1697615189751,1733.6958432689216,-936.1697615189751,1733.6958432689216,-1032.169761518975,986.445843268921,-1032.169761518975,986.445843268921,-936.1697615189751"/>
  <polygon id="50224300EC038A" title="EC038A" points="288.44584326893164,-1358.169761518975,288.44584326893164,-1346.1697615189748,353.4458432689212,-1346.1697615189748,353.4458432689212,-1358.169761518975,288.44584326893164,-1358.169761518975"/>
  <polygon id="50224300EC035" title="EC035" points="81.82084326891504,-1027.4197615189755,81.82084326891504,-500.16976151897506,140.44584326892254,-500.16976151897506,140.44584326892254,-597.1697615189753,283.69584326892164,-597.1697615189753,283.69584326892164,-1027.4197615189755,81.82084326891504,-1027.4197615189755"/>
  <polygon id="50224300EC035B" title="EC035B" points="140.44584326892254,-589.1697615189751,140.44584326892254,-500.16976151897506,292.44584326891527,-500.16976151897506,292.44584326891527,-381.66976151897506,325.94584326891527,-381.66976151897506,325.94584326891527,-337.16976151897506,555.6958432689216,-337.16976151897506,555.6958432689216,-357.1697615189755,591.6958432689216,-357.1697615189755,591.6958432689216,-321.16976151897506,577.9458432689153,-321.16976151897506,577.9458432689153,-105.41976151897416,1003.9458432689153,-105.41976151897416,1003.9458432689153,-321.16976151897506,987.6958432689216,-321.16976151897506,987.6958432689216,-357.16976151897506,1003.9458432689153,-357.16976151897506,1003.9458432689153,-589.1697615189746,140.44584326892254,-589.1697615189751"/>
</svg>
