<svg version="1.1" id="Map" class="gen-by-synoptic-designer" xmlns="http://www.w3.org/2000/svg" xmlns:xlink="http://www.w3.org/1999/xlink" viewBox="22.004564656200248 -1938.5000000000005 2299.450016808048 1915.0000000000173" xml:space="preserve">
  <image width="2299.450016808048" height="1915.0000000000173" xlink:href=""/>
  <polygon id="50224300397D" title="397D" points="191.45459019228474,-297.5,294.45458146424426,-297.5,294.45458146424426,-391.49999999999955,191.45459019228474,-391.49999999999955,191.45459019228474,-297.5"/>
  <polygon id="50224300397C" title="397C" points="294.45458146424426,-391.49999999999955,294.45458146424426,-297.50000000000045,397.45458146424426,-297.50000000000045,397.45458146424426,-391.49999999999955,294.45458146424426,-391.49999999999955"/>
  <polygon id="50224300397A" title="397A" points="294.454581464247,-591.5000000000007,294.454581464247,-685.5000000000002,191.45459019228474,-685.5000000000002,191.45459019228474,-591.5000000000007,294.454581464247,-591.5000000000007"/>
  <polygon id="50224300397B" title="397B" points="294.454581464247,-591.5000000000007,397.4545814642461,-591.5000000000007,397.4545814642461,-685.5000000000009,294.454581464247,-685.5000000000009,294.454581464247,-591.5000000000007"/>
  <polygon id="50224300397F" title="397F" points="191.45458146424517,-1163.0000000000005,191.45458146424517,-1066.5000000000002,326.45458146424426,-1066.5000000000002,326.45458146424426,-1163.0000000000005,191.45458146424517,-1163.0000000000005"/>
  <polygon id="50224300397E" title="397E" points="191.45458146424517,-1163.0000000000005,326.4545814642447,-1163.0000000000005,326.4545814642447,-1259.5000000000005,191.45458146424517,-1259.5000000000005,191.45458146424517,-1163.0000000000005"/>
  <polygon id="50224300399S2" title="399S2" points="1641.4545814642456,-723.5000000000002,1641.4545814642456,-488.5000000000007,1749.4545814642456,-488.5000000000007,1749.4545814642456,-723.5000000000002,1641.4545814642456,-723.5000000000002"/>
  <polygon id="50224300399S1" title="399S1" points="336.45458146424517,-1301.5,336.45458146424517,-1066.5000000000005,444.45458146424426,-1066.5000000000005,444.45458146424426,-1301.5,336.45458146424517,-1301.5"/>
  <polygon id="50224300324J" title="324J" points="1540.4545814642388,-23.499999999992724,1748.9545814642472,-23.499999999992724,1748.954581464247,-443.49999999999636,1471.954581464243,-443.49999999999636,1471.954581464243,-399.00000000000045,1509.454581464243,-302.999999999999,1540.4545814642388,-303.4999999999982,1566.454581464243,-303.4999999999982,1566.454581464243,-298.4999999999984,1540.4545814642388,-298.4999999999984,1540.4545814642388,-203.7499999999991,1566.454581464243,-203.7499999999991,1566.454581464243,-198.7499999999991,1540.4545814642388,-198.7499999999991,1540.4545814642388,-123.74999999999886,1566.454581464243,-123.74999999999886,1566.454581464243,-118.74999999999886,1540.4545814642388,-118.74999999999886,1540.4545814642388,-23.499999999992724"/>
  <polygon id="50224300324H" title="324H" points="1121.2045814642406,-146,1241.204581464243,-146,1241.204581464243,-140.99999999999852,1366.2045814642443,-140.99999999999852,1366.2045814642443,-23.499999999992383,1535.4545814642383,-23.499999999992383,1535.4545814642383,-118.74999999999875,1509.454581464243,-118.74999999999875,1509.454581464243,-123.74999999999943,1535.4545814642383,-123.74999999999943,1535.4545814642383,-198.74999999999898,1509.454581464243,-198.74999999999898,1509.454581464243,-203.74999999999966,1535.4545814642383,-203.74999999999966,1535.4545814642383,-298.4999999999983,1509.454581464243,-298.4999999999983,1509.454581464243,-303.499999999999,1471.954581464243,-399.00000000000045,1366.2045814642443,-398.999999999999,1366.2045814642443,-210.9999999999992,1242.2045814642433,-210.99999999999898,1242.2045814642433,-205.99999999999875,1121.2045814642406,-205.99999999999875,1121.2045814642406,-146"/>
  <polygon id="50224300324K" title="324K" points="1748.9545814642472,-398.99999999999955,1748.9545814642472,-54.00000000000068,1796.9545814642493,-54.00000000000068,1796.9545814642493,-23.499999999999204,1973.4545814642483,-23.499999999999204,1973.4545814642483,-120.24999999999932,1936.9545814642483,-120.24999999999932,1936.9545814642483,-125.24999999999977,1973.4545814642483,-125.24999999999977,1973.4545814642483,-200.49999999999955,1936.9545814642483,-200.49999999999955,1936.9545814642483,-205.5,1973.4545814642483,-205.5,1973.4545814642483,-293.9999999999993,1922.4545814642424,-293.9999999999991,1922.4545814642424,-398.99999999999955,1748.9545814642472,-398.99999999999955"/>
  <polygon id="50224300324" title="324" points="1366.2045814642438,-398.9999999999991,1466.9545814642424,-398.9999999999991,1466.9545814642424,-539.0000000000005,1438.954581464243,-539.0000000000005,1438.954581464243,-590.2500000000005,1433.7045814642424,-590.2500000000005,1433.7045814642424,-658.4999999999911,1366.2045814642497,-658.4999999999911,1366.2045814642438,-398.9999999999991"/>
  <polygon id="50224300324G" title="324G" points="1366.204581464243,-54.00000000000023,1366.204581464243,-140.99999999999886,1213.9545814642443,-140.99999999999886,1213.9545814642424,-23.499999999994998,1310.2045814642424,-23.499999999994998,1310.2045814642424,-54,1366.204581464243,-54.00000000000023"/>
  <polygon id="50224300324F" title="324F" points="1214.704581464243,-210.99999999999932,1366.2045814642443,-210.99999999999932,1366.2045814642443,-398.9999999999991,1214.704581464243,-398.9999999999991,1214.704581464243,-307.49999999999886,1242.2045814642438,-307.49999999999886,1242.2045814642438,-302.4999999999993,1214.704581464243,-302.4999999999993,1214.704581464243,-210.99999999999932"/>
  <polygon id="50224300399B" title="399B" points="451.64012958259445,-529.7500000015839,414.4545814642438,-529.7500000015846,414.4545814642438,-453.7499999986153,457.4082251555542,-453.74999999861484,457.1393130841034,-457.29316553264516,462.12497449443003,-457.6715572630135,462.80208495430776,-448.74999999999693,493.4545814642438,-448.749999999997,493.4545814642438,-382.2500000000006,648.4545814642465,-382.2500000000007,648.4545814642461,-663.5000000000005,1042.4045814642413,-663.499999999995,1042.4045814642413,-658.4999999999945,1008.9545814642402,-658.4999999999945,1008.9545814642402,-593.7305657777733,1042.404581464241,-593.7305657777722,1042.404581464241,-583.7305657777729,1102.4045814642418,-583.7305657777729,1102.4045814642418,-593.7305657777733,1135.9545814642406,-593.7305657777733,1135.9545814642406,-658.4999999999945,1102.4045814642413,-658.4999999999945,1102.4045814642413,-663.5000000000005,1433.7045814642424,-663.4999999999911,1433.7045814642424,-733.4917626878737,1754.454581464242,-733.4917626878737,1754.454581464242,-831.2500000000066,1690.4545814642502,-831.2500000000055,1690.4545814642502,-869.0000000000016,1633.4545814642497,-869.0000000000016,1633.4545814642497,-831.2500000000066,1258.9545814642443,-831.2500000000002,1258.9545814642443,-757.2515447692028,648.4545814642461,-757.2515447692028,648.4545814642465,-757.2500000000007,548.9505814642462,-757.2500000000009,548.9505814642462,-1011.3447417326768,548.5341346098344,-1011.3447417326768,548.5341346098344,-1056.5000000000007,487.9505814642466,-1056.5000000000007,487.95058146424617,-829.5000000000007,403.45458146424335,-829.5000000000011,403.45458146424335,-890.5000000000005,313.70458146424335,-890.5000000000005,313.70458146424335,-829.5000000000016,262.2045814642411,-829.5000000000007,262.2045814642411,-733.5000000000005,414.45458146424335,-733.5000000000243,427.7059070453456,-558.9015157230643,454.2889027278919,-560.9190584091356,456.86440110058606,-526.9844826281826,451.87873969025895,-526.6060908978138,451.64012958259445,-529.7500000015839"/>
  <polygon id="50224300304" title="304" points="553.9505814642462,-762.2500000000005,1236.4545814642438,-762.2500000000005,1236.4545814642438,-850.4999999999998,1258.9545814642433,-850.4999999999998,1258.9545814642433,-945.2500000000007,1236.4545814642438,-945.2500000000007,1236.4545814642438,-990.973300585754,1134.8975242463237,-992.896508738929,1033.7327627258599,-1002.0193167974371,933.4700472893235,-1018.295756631036,834.6145830810152,-1041.643814291679,830.7473534920705,-1028.1163734393103,799.8928377246177,-1037.1415062040805,801.8580344395397,-1043.8599883147706,821.1538574855383,-1038.2158431883913,826.1099315733879,-1055.5520259883438,807.283948824321,-1060.9340046140674,809.2080300478128,-1067.6643769251218,839.5717939015442,-1058.9839733448412,839.1667060447523,-1057.5047165707379,847.1433740679524,-1055.3453706346195,870.2478159657755,-1140.4036984223271,830.4598500282148,-1151.7705384650571,791.0450725699237,-1164.3706417947474,752.0416995657824,-1178.1917915408894,741.8099335479275,-1159.6368237792608,737.3110325839091,-1161.8822113252836,732.7393250952173,-1163.9753825446824,728.09995940472,-1165.9139802610016,733.4387902582591,-1179.5473069455354,714.71579744134,-1186.8792585692704,694.0708381589839,-1189.6809806991464,673.8563552613077,-1189.184303950813,653.9549241479709,-1185.7047446364343,634.9395508634451,-1179.2332840945605,616.929199054926,-1169.992479300464,600.7140820291041,-1158.0521906470872,586.257296851067,-1143.9656796888962,574.5189451104068,-1128.020827785472,564.8003057732924,-1109.9416682018796,558.1220916006449,-1090.7575914045497,553.5836337382389,-1066.395513844229,553.5836337382385,-1061.5000000000007,554.1671868838276,-1061.5000000000007,554.167186883828,-1050.356667736745,558.3057392220039,-1030.8276006603423,572.4096462538255,-1033.8049343376215,573.579159223339,-1028.9171572490209,574.8931601860952,-1024.066226727607,576.3504924415159,-1019.2564129941012,554.1671868838271,-1011.4212469864212,554.1671868838271,-1011.3447417326765,553.9505814642462,-1011.3447417326765,553.9505814642462,-762.2500000000005"/>
  <polygon id="50224300305" title="305" points="563.7542575502754,-1275.862470670145,664.5203502932227,-1224.2455481531579,769.3376152305298,-1181.4500681597367,877.4355087396809,-1147.790633290905,851.9758059810179,-1054.0614814593678,950.9667185803746,-1031.7136714865496,1051.3052003917578,-1016.5210925210984,1152.4747483690287,-1008.5619499850288,1253.9545814642436,-1007.8772144141743,1253.9545814642438,-1493.0213869515424,1220.8583285239683,-1493.0213869515424,1220.8583285239683,-1561.824034220644,1178.8583285239692,-1561.824034220644,1178.8583285239692,-1495.2713868608475,1171.6083285239692,-1495.2713868608475,1171.6083285239692,-1562.1117919574153,1099.9338551971273,-1580.309864638752,1099.9338551971273,-1614.9372232625142,935.4118931973917,-1656.7091747422896,918.8930742426696,-1626.2759267131505,840.1450639761347,-1646.2699629135445,811.7788814658898,-1588.5158091878316,798.6601805221253,-1595.0975112099718,798.6601805221253,-1636.2500000000005,723.8074968285391,-1636.2500000000005,723.8074968285391,-1577.6553131937872,563.7542575502754,-1275.862470670145"/>
  <polygon id="50224300318" title="318" points="1107.1838551971273,-1672.0000000000014,1107.1838551971273,-1593.074034220644,1178.8583285239679,-1593.074034220644,1178.8583285239679,-1569.074034220644,1253.9545814642433,-1569.074034220644,1253.9545814642433,-1672.0000000000014,1107.1838551971273,-1672.0000000000014"/>
  <polygon id="50224300303" title="303" points="592.1632957458053,-1156.7015125852,600.3764770328233,-1163.871589962682,609.1267439605219,-1170.3753723350042,618.3601806576581,-1176.1727858283205,628.0198941416281,-1181.2281089495573,638.0463648717426,-1185.5101926888906,648.3778134863693,-1188.99265244829,658.9505814642463,-1191.6540306135428,658.9505814642463,-1216.8930069690125,623.0770770810205,-1234.0936749587509,587.7332349065038,-1252.3579602272534,552.9505814642457,-1271.6695711269738,552.9505814642456,-1156.7015125852,592.1632957458053,-1156.7015125852"/>
  <polygon id="50224300306" title="306" points="552.9505814642462,-1551.8060069177695,552.9505814642462,-1371.0024772959619,606.0044608488693,-1371.0024772959605,701.892058271419,-1551.8060069177695,552.9505814642462,-1551.8060069177695"/>
  <polygon id="50224300310" title="310" points="716.5574968285391,-1579.458832995937,716.5574968285391,-1672.0000000000014,552.9505814642462,-1672.0000000000014,552.9505814642462,-1561.3060069177695,706.9303015923301,-1561.306006917769,716.5574968285391,-1579.458832995937"/>
  <polygon id="50224300399A" title="399A" points="186.45458146424335,-401.4999999999993,395.9545814642429,-401.4999999999993,395.95458146424335,-437.5000000000007,409.4545814642438,-437.5000000000007,409.4545814642438,-545.5000000000005,395.9545814642429,-545.5000000000005,395.9545814642429,-581.5000000000009,186.45458146424335,-581.5000000000009,186.45458146424335,-401.4999999999993"/>
  <polygon id="50224300372" title="372" points="482.2005814642466,-1056.5000000000007,382.45458146424335,-1056.5000000000007,382.45458146424335,-978.5000000000016,424.454581464247,-978.5000000000016,424.454581464247,-973.5000000000014,382.45458146424335,-973.5000000000014,382.45458146424335,-896.7500000000005,408.45458146424335,-896.7500000000005,408.45458146424335,-835.7500000000005,453.45458146424335,-835.7500000000005,453.45458146424335,-865.5000000000005,482.2005814642466,-865.5000000000005,482.2005814642466,-1056.5000000000007"/>
  <polygon id="50224300373" title="373" points="358.45458146424744,-896.7500000000002,358.45458146424744,-973.5000000000014,298.45458146424744,-973.5000000000014,298.45458146424744,-978.5000000000014,358.45458146424744,-978.5000000000014,358.45458146424744,-1056.4999999999995,261.70458146424335,-1056.4999999999995,261.7045814642438,-836.5000000000011,309.70458146424335,-836.5000000000011,309.70458146424335,-896.7500000000002,358.45458146424744,-896.7500000000002"/>
  <polygon id="50224300374A" title="374A" points="185.45458146424335,-1044.3750000000684,256.4545814642429,-1044.3750000000684,256.4545814642429,-1056.5,185.45458146424335,-1056.5,185.45458146424335,-1044.3750000000684"/>
  <polygon id="50224300398" title="398" points="174.45458146424335,-654.5000000000005,22.004564656200248,-654.5000000000005,22.004564656200277,-287.50000000000045,174.4545814642438,-287.50000000000045,174.45458146424335,-654.5000000000005"/>
  <polygon id="50224300374" title="374" points="185.45458146424335,-1038.875000000068,185.45458146424335,-836.5000000000014,256.4545814642438,-836.5000000000014,256.4545814642438,-1038.875000000068,185.45458146424335,-1038.875000000068"/>
  <polygon id="50224300399C" title="399C" points="25.454581464245166,-831.0000000000009,25.45458146424494,-733.5000000000005,61.4091629284876,-733.5000000000005,61.4091629284876,-707.0000000000005,55.6591629284876,-707.0000000000005,55.6591629284876,-662.0000000000005,155.6591629284876,-662.0000000000005,155.6591629284876,-707.0000000000005,149.9091629284876,-707.0000000000005,149.9091629284876,-733.5000000000005,256.2045814642406,-733.5000000000005,256.2045814642406,-829.5000000000014,180.2045814642438,-829.5000000000016,180.20458146424335,-974.0000000000014,25.454581464245166,-974.0000000000014,25.454581464245166,-864.0000000000009,55.9545814642438,-864.0000000000009,55.954581464243816,-831.0000000000009,25.454581464245166,-831.0000000000009"/>
  <polygon id="50224300307" title="307" points="106.45458146424335,-1371.5000000000014,106.45458146424335,-1311.5000000000005,487.9505814642466,-1311.5000000000005,487.9505814642466,-1061.5000000000007,547.9505814642462,-1061.5000000000007,547.9505814642462,-1433.5000000000005,487.9505814642466,-1433.5000000000005,487.9505814642466,-1371.5000000000014,106.45458146424335,-1371.5000000000014"/>
  <polygon id="50224300399D" title="399D" points="25.454581464244033,-1205.000000000001,25.454581464244033,-980.0000000000014,179.95458146424494,-980.0000000000014,179.95458146424562,-1306.5000000000014,106.45458146424335,-1306.5000000000014,106.45458146424335,-1244.5000000000014,57.204581464245166,-1244.5000000000014,57.204581464245166,-1205.000000000001,25.454581464244033,-1205.000000000001"/>
  <polygon id="50224300301" title="301" points="881.4545814642365,-60.250000000000455,881.4545814642402,-290.5000000000025,822.050165377766,-290.5000000000025,819.7131853488995,-287.721638560281,822.9656105378199,-284.9859064113889,795.2864382078519,-252.07901626467446,792.0340130189315,-254.81474841356703,773.2057388177336,-232.43041034865155,770.144632757574,-235.00521707702052,788.9729069587722,-257.3895551419363,785.7204817698514,-260.1252872908256,797.5788148347928,-274.22328338837053,748.4097987434783,-315.5811164628014,736.5514656785392,-301.4831203652592,733.2990404896201,-304.218852514151,714.4707662884213,-281.8345144492356,711.4096602282617,-284.4093211776046,730.2379344294604,-306.79365924252056,726.985509240541,-309.52939139141256,738.84384230548,-323.627387488955,676.2824872009696,-376.2499999999993,493.4545814642429,-376.2499999999993,493.4545814642429,-250.25000000000068,500.2045814642406,-250.25000000000068,500.2045814642406,-60.250000000000455,881.4545814642365,-60.250000000000455"/>
  <polygon id="50224300375" title="375" points="1064.4545814642443,-571.7305657777724,1003.9545814642402,-571.7305657777724,1003.9545814642402,-658.4999999999961,931.9545814642461,-658.4999999999961,931.9545814642461,-569.5000000000009,955.9545814642406,-569.5000000000005,955.9545814642406,-564.5000000000005,931.4545814642461,-564.5000000000005,931.4545814642461,-460.50000000000045,955.9545814642402,-460.50000000000045,955.9545814642402,-432.2499999999943,1064.4545814642438,-432.2499999999943,1064.4545814642443,-571.7305657777724"/>
  <polygon id="50224300376" title="376" points="1212.954581464243,-658.4999999999936,1140.9545814642406,-658.4999999999936,1140.9545814642406,-571.7305657777724,1080.4545814642443,-571.7305657777724,1080.4545814642443,-432.24999999999295,1188.9545814642397,-432.24999999999295,1188.9545814642393,-460.4999999999959,1212.9545814642424,-460.4999999999959,1212.9545814642424,-564.4999999999961,1188.9545814642393,-564.4999999999961,1188.9545814642402,-569.4999999999961,1212.954581464243,-569.4999999999961,1212.954581464243,-658.4999999999936"/>
  <polygon id="50224300322" title="322" points="1616.2045814642502,-1239.5000000000027,1351.9545814642438,-1239.5000000000027,1351.9545814642438,-1209.0000000000005,1322.7045814642524,-1209.0000000000005,1322.7045814642524,-873.0000000000005,1351.9545814642438,-873.0000000000005,1351.9545814642438,-836.250000000005,1616.2045814642502,-836.250000000005,1616.2045814642502,-1239.5000000000027"/>
  <polygon id="50224300319" title="319" points="1258.9545814642438,-836.2500000000011,1317.7045814642524,-836.2500000000011,1317.7045814642524,-1242.0000000000005,1349.4545814642534,-1242.0000000000005,1349.4545814642534,-1522.5000000000023,1346.454581464246,-1522.5000000000023,1346.454581464246,-1639.5000000000005,1318.9545814642438,-1639.5000000000005,1318.9545814642438,-1682.5000000000005,1346.4545814642456,-1682.5000000000005,1346.4545814642456,-1733.5000000000005,1258.9545814642438,-1733.5000000000005,1258.9545814642438,-1561.824034220644,1228.1083285239683,-1561.824034220644,1228.1083285239683,-1500.2713869515424,1258.9545814642438,-1500.2713869515424,1258.9545814642438,-836.2500000000011"/>
  <polygon id="50224300313" title="313" points="487.95458146424335,-1733.5000000000005,487.95458146424335,-1438.5000000000005,547.9505814642462,-1438.5000000000005,547.9505814642462,-1677.0000000000014,723.8074968285391,-1677.0000000000014,723.8074968285391,-1643.5000000000005,798.6601805221253,-1643.5000000000005,798.6601805221253,-1677.0000000000014,1258.9545814642438,-1677.0000000000014,1258.9545814642438,-1733.5000000000005,487.95458146424335,-1733.5000000000005"/>
  <polygon id="50224300308A" title="308A" points="25.45458146424517,-1371.5000000000014,25.45458146424517,-1250.5000000000014,101.45458146424335,-1250.5000000000014,101.45458146424335,-1371.5000000000014,25.45458146424517,-1371.5000000000014"/>
  <polygon id="50224300309" title="309" points="464.9505814642466,-1514.2500000000032,464.9505814642466,-1532.2500000000032,367.7005814642466,-1532.2500000000032,367.7005814642466,-1514.2500000000032,337.7005814642466,-1514.2500000000032,337.7005814642466,-1395.0000000000032,367.7005814642466,-1395.0000000000032,367.7005814642466,-1376.5000000000014,482.9505814642466,-1376.5000000000014,482.9505814642466,-1514.2500000000032,464.9505814642466,-1514.2500000000032"/>
  <polygon id="50224300308" title="308" points="482.9505814642466,-1537.2500000000032,482.9505814642466,-1634.5000000000014,454.95458146424335,-1634.5000000000014,454.95458146424335,-1671.7499999999977,55.95458146424244,-1671.7499999999977,55.95458146424244,-1634.5000000000014,25.454581464244484,-1634.5000000000014,25.45458146424494,-1371.5000000000014,61.57958146424335,-1371.5000000000014,61.57958146424335,-1376.5000000000014,332.7005814642466,-1376.5000000000014,332.7005814642466,-1537.2500000000032,482.9505814642466,-1537.2500000000032"/>
  <polygon id="50224300315" title="315" points="722.2045814642433,-1938.5000000000005,722.2045814642433,-1738.5000000000005,901.7743677460576,-1738.5000000000005,901.7743677460576,-1911.0000000000005,886.9545814642343,-1911.0000000000005,886.9545814642343,-1938.5000000000005,722.2045814642433,-1938.5000000000005"/>
  <polygon id="50224300314" title="314" points="487.95458146424335,-1738.5000000000005,716.4545814642433,-1738.5000000000005,716.4545814642433,-1938.5000000000005,487.95458146424335,-1938.5000000000005,487.95458146424335,-1738.5000000000005"/>
  <polygon id="50224300311" title="311" points="25.45458146424517,-1910.9999999999995,25.45458146424517,-1676.7499999999977,482.20458146424335,-1676.7499999999977,482.20458146424335,-1908.2500000000014,454.95458146423425,-1908.2500000000014,454.95458146423425,-1938.5000000000005,55.954581464245166,-1938.5000000000005,55.95458146424494,-1910.9999999999995,25.45458146424517,-1910.9999999999995"/>
  <polygon id="50224300316" title="316" points="906.7743677460576,-1842.5000000000005,906.7743677460576,-1738.5000000000005,1108.5243677460576,-1738.5000000000005,1108.5243677460576,-1842.5000000000005,906.7743677460576,-1842.5000000000005"/>
  <polygon id="50224300316A" title="316A" points="906.7743677460576,-1911.5000000000005,906.7743677460576,-1847.5000000000005,1108.5243677460576,-1847.5000000000005,1108.5243677460576,-1938.5000000000005,918.7743677460576,-1938.5000000000005,918.7743677460576,-1911.5000000000005,906.7743677460576,-1911.5000000000005"/>
  <polygon id="50224300317" title="317" points="1260.4545814642456,-1738.5000000000005,1346.4545814642456,-1738.5000000000005,1346.4545814642456,-1911.0000000000005,1249.0243677460576,-1911.0000000000005,1249.0243677460576,-1938.5000000000005,1113.5243677460576,-1938.5000000000005,1113.5243677460576,-1738.5000000000005,1243.4545814642456,-1738.5000000000005,1243.4545814642456,-1756.5000000000005,1260.4545814642456,-1756.5000000000005,1260.4545814642456,-1738.5000000000005"/>
  <polygon id="50224300302" title="302" points="926.9545814642456,-432.2499999999959,926.9545814642456,-658.5000000000002,653.4545814642461,-658.5000000000002,653.4545814642461,-381.2500000000023,673.9545814642488,-381.2500000000013,688.2769438907993,-398.27740245963594,692.1033264659984,-395.0588940491749,679.5009956114297,-380.0763825752,742.0623507159421,-327.4537700641546,754.6646815705097,-342.4362815381273,764.2306380085081,-334.39001051197346,751.628307153941,-319.40749903800094,800.7973232452547,-278.0496659635701,813.3996540998222,-293.0321774375423,816.6520792887408,-290.2964452886498,820.1878407883901,-294.50000000000273,881.4545814642424,-294.50000000000273,881.4545814642424,-432.2499999999959,926.9545814642456,-432.2499999999959"/>
  <polygon id="50224300320" title="320" points="1471.954581464243,-483.5000000000007,1519.9545814642424,-483.5000000000007,1519.9545814642424,-728.4953554438794,1471.954581464243,-728.4953554438794,1471.954581464243,-483.5000000000007"/>
  <polygon id="50224300327" title="327" points="1526.4545814642433,-483.5000000000007,1631.454581464246,-483.5000000000007,1631.454581464246,-728.4999999978313,1526.4545814642433,-728.4999999978313,1526.4545814642433,-483.5000000000007"/>
  <polygon id="50224300324D" title="324D" points="1130.9545814642424,-141.00000000000023,1130.9545814642424,-23.499999999999318,1208.9545814642424,-23.499999999999318,1208.9545814642424,-141.00000000000023,1130.9545814642424,-141.00000000000023"/>
  <polygon id="50224300325C" title="325C" points="987.2045814642447,-141.00000000000182,987.2045814642447,-23.499999999999204,1125.9545814642406,-23.499999999999204,1125.9545814642406,-141.00000000000182,987.2045814642447,-141.00000000000182"/>
  <polygon id="50224300325D" title="325D" points="982.2045814642447,-141.00000000000193,886.4545814642365,-141.00000000000193,886.4545814642365,-63.00000000000364,931.2045814642433,-63.000000000002956,931.2045814642433,-23.499999999999318,982.2045814642429,-23.499999999999318,982.2045814642447,-141.00000000000193"/>
  <polygon id="50224300325" title="325" points="1104.8295814642447,-290.5000000000002,992.0795814642433,-290.5000000000002,992.0795814642433,-206.0000000000016,886.4545814642388,-206.00000000000273,886.4545814642388,-145.99999999999898,1116.2045814642406,-145.99999999999898,1116.2045814642406,-206.00000000000273,1104.8295814642447,-206.0000000000016,1104.8295814642447,-290.5000000000002"/>
  <polygon id="50224300324E" title="324E" points="1121.2045814642415,-211.00000000000023,1209.7045814642443,-211.00000000000023,1209.7045814642443,-290.4999999999991,1121.2045814642415,-290.4999999999991,1121.2045814642415,-211.00000000000023"/>
  <polygon id="50224300301A" title="301A" points="987.0795814642447,-237.50000000000273,987.0795814642447,-290.5000000000016,886.4545814642402,-290.50000000000273,886.4545814642402,-211.00000000000205,950.4545814642402,-211.00000000000205,950.4545814642406,-237.50000000000273,987.0795814642447,-237.50000000000273"/>
  <polygon id="50224300325B" title="325B" points="1050.9545814642456,-427.24999999999454,1050.9545814642456,-295.4999999999991,1209.7045814642443,-295.4999999999991,1209.7045814642443,-427.24999999999454,1050.9545814642456,-427.24999999999454"/>
  <polygon id="50224300325A" title="325A" points="1045.9545814642456,-427.24999999999477,919.9545814642433,-427.24999999999477,919.9545814642433,-398.99999999999886,886.454581464242,-398.99999999999886,886.454581464242,-295.5000000000009,1045.954581464243,-295.5000000000009,1045.9545814642456,-427.24999999999477"/>
  <polygon id="50224300324A" title="324A" points="1217.954581464243,-504.37500000000887,1361.2045814642515,-504.37500000000887,1361.2045814642515,-658.4999999999918,1217.954581464243,-658.4999999999918,1217.954581464243,-504.37500000000887"/>
  <polygon id="50224300324B" title="324B" points="1361.2045814642452,-441.12499999999886,1361.2045814642452,-499.37500000000887,1217.954581464243,-499.37500000000887,1217.9545814642433,-403.9999999999977,1318.2045814642424,-403.9999999999977,1318.2045814642424,-441.12499999999886,1361.2045814642452,-441.12499999999886"/>
  <polygon id="50224300339" title="339" points="1865.454581464247,-475.50000000000273,1865.454581464247,-403.9999999999998,1973.454581464247,-403.9999999999998,1973.454581464247,-475.50000000000273,1865.454581464247,-475.50000000000273"/>
  <polygon id="50224300324C" title="324C" points="1860.4545814642465,-475.50000000000273,1759.454581464246,-475.50000000000273,1759.454581464246,-431.9999999999982,1783.954581464243,-431.9999999999982,1783.954581464243,-404.00000000000273,1860.4545814642465,-404.00000000000273,1860.4545814642465,-475.50000000000273"/>
  <polygon id="50224300328" title="328" points="1759.454581464242,-831.2500000000066,1759.454581464242,-735.5000000000014,1973.454581464247,-735.5000000000014,1973.454581464247,-831.2500000000066,1759.454581464242,-831.2500000000066"/>
  <polygon id="50224300331" title="331" points="1883.7045814642474,-594.2500000000014,1973.454581464247,-594.2500000000014,1973.454581464247,-730.5000000000014,1883.7045814642474,-730.5000000000014,1883.7045814642474,-594.2500000000014"/>
  <polygon id="50224300330" title="330" points="1878.704581464247,-638.8750000000027,1878.704581464247,-730.4999999999993,1815.9545814642483,-730.4999999999993,1815.9545814642483,-638.8750000000027,1878.704581464247,-638.8750000000027"/>
  <polygon id="50224300329" title="329" points="1878.704581464247,-633.8750000000025,1810.9545814642493,-633.8750000000018,1810.9545814642493,-730.4999999999986,1759.454581464246,-730.4999999999986,1759.454581464246,-480.5000000000041,1973.454581464247,-480.50000000000136,1973.454581464247,-589.2500000000011,1878.704581464247,-589.2500000000011,1878.704581464247,-633.8750000000025"/>
  <polygon id="50224300326" title="326" points="1729.4545814642488,-1239.5000000000045,1634.7045814642497,-1239.5000000000045,1634.7045814642497,-1210.2500000000014,1621.2045814642497,-1210.2500000000011,1621.2045814642502,-874.0000000000016,1695.4545814642502,-874.0000000000016,1695.4545814642502,-836.2500000000055,1747.4545814642497,-836.2500000000055,1747.4545814642497,-929.4999999999973,1729.4545814642497,-929.499999999997,1729.4545814642488,-1239.5000000000045"/>
  <polygon id="50224300333" title="333" points="1752.4545814642493,-929.499999999997,1752.4545814642493,-872.0000000000016,1783.9545814642452,-872.0000000000016,1783.9545814642452,-836.2500000000066,1973.4545814642497,-836.2500000000066,1973.4545814642497,-929.5000000000011,1752.4545814642493,-929.499999999997"/>
  <polygon id="50224300333A" title="333A" points="1879.4545814642502,-934.4999999999995,1973.454581464247,-934.4999999999995,1973.454581464247,-1004.5000000000009,1879.4545814642502,-1004.5000000000009,1879.4545814642502,-934.4999999999995"/>
  <polygon id="50224300333B" title="333B" points="1874.4545814642502,-1008.5000000000025,1759.4545814642497,-1008.5000000000025,1759.4545814642497,-969.499999999997,1808.4545814642506,-969.499999999997,1808.4545814642506,-964.499999999998,1759.4545814642497,-964.499999999998,1759.4545814642497,-934.499999999998,1874.4545814642502,-934.499999999998,1874.4545814642502,-1008.5000000000025"/>
  <polygon id="50224300334C" title="334C" points="1734.4545814642483,-1143.5000000000016,1734.4545814642483,-1092.500000000001,1943.454581464246,-1092.500000000001,1943.454581464246,-1143.5000000000016,1734.4545814642483,-1143.5000000000016"/>
  <polygon id="50224300334F" title="334F" points="1854.4545814642493,-1087.4999999999995,1854.4545814642493,-1017.5000000000027,1943.454581464247,-1017.5000000000027,1943.454581464247,-1087.4999999999995,1854.4545814642493,-1087.4999999999995"/>
  <polygon id="50224300334E" title="334E" points="1849.4545814642493,-1087.4999999999993,1734.4545814642497,-1087.4999999999993,1734.4545814642497,-1057.500000000001,1783.4545814642488,-1057.500000000001,1783.4545814642488,-1052.500000000002,1734.4545814642502,-1052.500000000001,1734.4545814642502,-1013.5000000000023,1849.4545814642493,-1013.5000000000023,1849.4545814642493,-1087.4999999999993"/>
  <polygon id="50224300334D" title="334D" points="1791.4545814642488,-1239.5000000000055,1791.4545814642488,-1209.0000000000005,1734.4545814642488,-1209.0000000000005,1734.4545814642488,-1148.5000000000023,1760.8295814642506,-1148.5000000000023,1760.8295814642506,-1143.5000000000023,1807.8295814642497,-1143.5000000000023,1807.8295814642497,-1171.7500000000016,1812.8295814642502,-1171.7500000000016,1812.8295814642502,-1148.5000000000027,1973.954581464248,-1148.5000000000027,1973.954581464248,-1239.5000000000082,1791.4545814642488,-1239.5000000000055"/>
  <polygon id="50224300334" title="334" points="1948.454581464246,-1143.5000000000048,1948.454581464246,-1071.500000000008,2074.454581464249,-1071.500000000008,2074.454581464249,-1143.5000000000048,1948.454581464246,-1143.5000000000048"/>
  <polygon id="50224300332" title="332" points="2074.454581464249,-1066.500000000008,1948.4545814642465,-1066.500000000008,1948.4545814642465,-1009.5000000000007,1978.454581464247,-1009.5000000000007,1978.454581464247,-399,1927.4545814642433,-399,1927.4545814642433,-298.99999999999955,1978.4545814642488,-298.99999999999886,1978.4545814642488,-23.499999999985903,2074.454581464249,-23.499999999985903,2074.4545814642483,-274.49999999999864,2107.4545814642424,-274.49999999999864,2107.4545814642424,-386.9999999999991,2074.4545814642483,-386.9999999999991,2074.4545814642483,-902.2499999999991,2109.9545814642415,-902.2499999999991,2109.9545814642415,-969.7499999999984,2074.4545814642483,-969.7499999999984,2074.454581464249,-1066.500000000008"/>
  <polygon id="50224300334B" title="334B" points="1978.9545814642483,-1148.5000000000052,2321.4545814642433,-1148.50000000001,2321.4545814642433,-1209.5000000000068,2290.454581464249,-1209.5000000000068,2290.454581464249,-1239.5000000000064,1978.9545814642483,-1239.5000000000064,1978.9545814642483,-1148.5000000000052"/>
  <polygon id="50224300335" title="335" points="2114.9545814642424,-928.499999999998,2195.564231509248,-928.499999999998,2195.564231509248,-1033.2500000000061,2079.4545814642483,-1033.250000000005,2079.4545814642483,-974.7499999999984,2114.9545814642424,-974.7499999999984,2114.9545814642424,-928.499999999998"/>
  <polygon id="50224300336A" title="336A" points="2230.204581464247,-902.2499999999986,2321.4545814642433,-902.2499999999986,2321.4545814642433,-1033.250000000008,2200.564231509248,-1033.250000000006,2200.564231509248,-913.750000000007,2230.204581464247,-913.750000000007,2230.204581464247,-902.2499999999986"/>
  <polygon id="50224300336" title="336" points="2321.454581464243,-831.2500000000011,2289.954581464247,-831.2500000000009,2289.954581464246,-878.1581169079611,2270.8626983722097,-897.2499999999993,2195.564231509252,-897.2499999999985,2195.564231509251,-923.4999999999992,2121.814231509252,-923.4999999999982,2121.814231509252,-897.2499999999993,2100.3789362705265,-897.2499999999991,2079.4545814642483,-876.3256451937204,2079.454581464249,-667.1743548062755,2100.3789362705265,-646.2499999999981,2299.534271247463,-646.2499999999998,2321.454581464244,-668.1703102167803,2321.454581464243,-831.2500000000011"/>
  <polygon id="50224300338" title="338" points="2145.0672798364594,-641.25,2135.5213382904394,-631.7040584539805,2101.0213382904367,-631.7040584539805,2079.4545814642483,-610.1373016277919,2079.454581464249,-413.5667568261904,2101.0213382904376,-392.0000000000016,2187.927669529663,-391.99999999999864,2187.927669529663,-365.7500000000018,2259.927669529663,-365.7500000000018,2259.927669529663,-392.0000000000018,2266.9276695296644,-392.0000000000019,2286.726659402887,-411.79898987322065,2286.7266594028865,-437.7989898732221,2308.7266594028883,-437.79898987322264,2321.4545814642483,-450.5269119345827,2321.454576986811,-450.5269119358659,2321.4545814642447,-610.1373016277919,2321.454581464244,-613.6728355337248,2293.877416997967,-641.25,2145.0672798364594,-641.25"/>
  <polygon id="50224300338B" title="338B" points="2184.9606781186585,-387.0000000000018,2112.4545814642424,-387.0000000000018,2112.4545814642424,-274.49999999999727,2184.9606781186585,-274.49999999999727,2184.9606781186585,-300.7499999999991,2266.9606781186585,-300.74999999999545,2266.9606781186585,-274.4999999999957,2321.454581464248,-274.4999999999957,2321.4545814642433,-386.9999999999993,2264.927669529663,-386.9999999999993,2264.927669529663,-360.7499999999991,2184.9606781186585,-360.7499999999991,2184.9606781186585,-387.0000000000018"/>
  <polygon id="50224300340" title="340" points="2288.7413780286515,-23.499999999983174,2288.7413780286515,-54.999999999999005,2300.2413780286515,-54.99999999999807,2321.4545814642443,-76.2132034355921,2321.4545814642443,-248.64034995499543,2300.594931419245,-269.4999999999957,2261.9606781186585,-269.49999999999727,2261.9606781186585,-295.7499999999957,2189.9606781186585,-295.7499999999957,2189.9606781186585,-269.49999999999727,2099.9606781186576,-269.4999999999984,2079.4545814642493,-248.99390334558882,2079.454581464249,-44.006096654394355,2099.9606781186576,-23.499999999983174,2288.7413780286515,-23.499999999983174"/>
  <polygon id="50224300334A" title="334A" points="2079.4545814642493,-1038.2500000000045,2321.4545814642433,-1038.2500000000045,2321.4545814642433,-1148.50000000001,2200.564231509249,-1148.0000000000086,2200.564231509249,-1143.5000000000084,2079.4545814642493,-1143.5000000000102,2079.4545814642493,-1038.2500000000045"/>
</svg>
